================== EMINEM - SPACE BOUND HD 720P =============================

Format                           : MPEG-4
Format profile                   : Base Media / Version 2
Codec ID                         : mp42
File size                        : 74.1 MiB
Duration                         : 4mn 24s
Overall bit rate                 : 2 349 Kbps
Encoded date                     : UTC 2011-06-22 23:40:43
Tagged date                      : UTC 2011-06-22 23:40:43

Video
ID                               : 1
Format                           : AVC
Format/Info                      : Advanced Video Codec
Format profile                   : High@L4.0
Format settings, CABAC           : Yes
Format settings, ReFrames        : 1 frame
Codec ID                         : avc1
Codec ID/Info                    : Advanced Video Coding
Duration                         : 4mn 24s
Bit rate mode                    : Variable
Bit rate                         : 2 191 Kbps
Maximum bit rate                 : 5 204 Kbps
Width                            : 1 920 pixels
Height                           : 1 080 pixels
Display aspect ratio             : 16:9
Frame rate mode                  : Variable
Frame rate                       : 23.976 fps
Minimum frame rate               : 17.241 fps
Maximum frame rate               : 24.390 fps
Color space                      : YUV
Chroma subsampling               : 4:2:0
Bit depth                        : 8 bits
Scan type                        : Progressive
Bits/(Pixel*Frame)               : 0.044
Stream size                      : 69.1 MiB (93%)
Tagged date                      : UTC 2011-06-22 23:40:46

Audio
ID                               : 2
Format                           : AAC
Format/Info                      : Advanced Audio Codec
Format version                   : Version 4
Format profile                   : LC
Format settings, SBR             : No
Codec ID                         : 40
Duration                         : 4mn 24s
Bit rate mode                    : Variable
Bit rate                         : 152 Kbps
Maximum bit rate                 : 182 Kbps
Channel(s)                       : 2 channels
Channel positions                : Front: L R
Sampling rate                    : 44.1 KHz
Stream size                      : 4.79 MiB (6%)
Title                            : IsoMedia File Produced by Google, 5-11-2011
Encoded date                     : UTC 2011-06-22 23:40:45
Tagged date                      : UTC 2011-06-22 23:40:46

=========================== SCREEN SHOTS ======================================

                        http://bayimg.com/iAiDNaaDo
                        http://bayimg.com/IaIDoAADO
                        http://bayimg.com/IAIdPaAdo
                        http://bayimg.com/JAiDaAadO


============================ FOLLOW ME ON TWEETER AND FACEBOOK =================

           http :///#!/ haunting_summer

  http: // www. facebook. com/ pages/ HaUnTiNgSuMMeR-ToRrEnTs/ 192812490771363

=================================================================================

--------------- PLZ RATE +/- THE QUALITY N COMMENT IF POSSIBLE -----------------

